<svg xmlns="http://www.w3.org/2000/svg" style="display: none;">
  
  <!-- Eye Icon (visibility on) -->
  <symbol id="icon-eye" viewBox="0 0 24 24" fill="none" stroke="currentColor" stroke-width="2" stroke-linecap="round" stroke-linejoin="round">
    <path d="M2 12s3-7 10-7 10 7 10 7-3 7-10 7-10-7-10-7Z"/>
    <circle cx="12" cy="12" r="3"/>
  </symbol>
  
  <!-- Eye Off Icon (visibility off) -->
  <symbol id="icon-eye-off" viewBox="0 0 24 24" fill="none" stroke="currentColor" stroke-width="2" stroke-linecap="round" stroke-linejoin="round">
    <path d="M9.88 9.88a3 3 0 1 0 4.24 4.24"/>
    <path d="M10.73 5.08A10.43 10.43 0 0 1 12 5c7 0 10 7 10 7a13.16 13.16 0 0 1-1.67 2.68"/>
    <path d="M6.61 6.61A13.526 13.526 0 0 0 2 12s3 7 10 7a9.74 9.74 0 0 0 5.39-1.61"/>
    <line x1="2" x2="22" y1="2" y2="22"/>
  </symbol>
  
  <!-- Key Icon (password generator) -->
  <symbol id="icon-key" viewBox="0 0 24 24" fill="none" stroke="currentColor" stroke-width="2" stroke-linecap="round" stroke-linejoin="round">
    <circle cx="7.5" cy="15.5" r="5.5"/>
    <path d="m21 2-9.6 9.6"/>
    <path d="m15.5 7.5 3 3L22 7l-3-3"/>
  </symbol>
  
  <!-- Check Icon (success) -->
  <symbol id="icon-check" viewBox="0 0 24 24" fill="none" stroke="currentColor" stroke-width="2" stroke-linecap="round" stroke-linejoin="round">
    <polyline points="20 6 9 17 4 12"/>
  </symbol>
  
  <!-- User Icon -->
  <symbol id="icon-user" viewBox="0 0 24 24" fill="none" stroke="currentColor" stroke-width="2" stroke-linecap="round" stroke-linejoin="round">
    <path d="M19 21v-2a4 4 0 0 0-4-4H9a4 4 0 0 0-4 4v2"/>
    <circle cx="12" cy="7" r="4"/>
  </symbol>

  <!-- users Icon (users) -->
  <symbol id="icon-users" viewBox="0 0 24 24" fill="none" stroke="currentColor" stroke-width="2" stroke-linecap="round" stroke-linejoin="round">
    <path d="M16 21v-2a4 4 0 0 0-4-4H6a4 4 0 0 0-4 4v2"/>
    <circle cx="9" cy="7" r="4"/>
    <path d="M22 21v-2a4 4 0 0 0-3-3.87"/>
    <path d="M16 3.13a4 4 0 0 1 0 7.75"/>
  </symbol>
  
  <!-- Shield Icon (2FA) -->
  <symbol id="icon-shield" viewBox="0 0 24 24" fill="none" stroke="currentColor" stroke-width="2" stroke-linecap="round" stroke-linejoin="round">
    <path d="M12 22s8-4 8-10V5l-8-3-8 3v7c0 6 8 10 8 10z"/>
  </symbol>
  
  <!-- Log Out Icon -->
  <symbol id="icon-log-out" viewBox="0 0 24 24" fill="none" stroke="currentColor" stroke-width="2" stroke-linecap="round" stroke-linejoin="round">
    <path d="M9 21H5a2 2 0 0 1-2-2V5a2 2 0 0 1 2-2h4"/>
    <polyline points="16 17 21 12 16 7"/>
    <line x1="21" x2="9" y1="12" y2="12"/>
  </symbol>
  
  <!-- Settings Icon -->
  <symbol id="icon-settings" viewBox="0 0 24 24" fill="none" stroke="currentColor" stroke-width="2" stroke-linecap="round" stroke-linejoin="round">
    <path d="M12.22 2h-.44a2 2 0 0 0-2 2v.18a2 2 0 0 1-1 1.73l-.43.25a2 2 0 0 1-2 0l-.15-.08a2 2 0 0 0-2.73.73l-.22.38a2 2 0 0 0 .73 2.73l.15.1a2 2 0 0 1 1 1.72v.51a2 2 0 0 1-1 1.74l-.15.09a2 2 0 0 0-.73 2.73l.22.38a2 2 0 0 0 2.73.73l.15-.08a2 2 0 0 1 2 0l.43.25a2 2 0 0 1 1 1.73V20a2 2 0 0 0 2 2h.44a2 2 0 0 0 2-2v-.18a2 2 0 0 1 1-1.73l.43-.25a2 2 0 0 1 2 0l.15.08a2 2 0 0 0 2.73-.73l.22-.39a2 2 0 0 0-.73-2.73l-.15-.08a2 2 0 0 1-1-1.74v-.5a2 2 0 0 1 1-1.74l.15-.09a2 2 0 0 0 .73-2.73l-.22-.38a2 2 0 0 0-2.73-.73l-.15.08a2 2 0 0 1-2 0l-.43-.25a2 2 0 0 1-1-1.73V4a2 2 0 0 0-2-2z"/>
    <circle cx="12" cy="12" r="3"/>
  </symbol>
  
  <!-- Home Icon -->
  <symbol id="icon-home" viewBox="0 0 24 24" fill="none" stroke="currentColor" stroke-width="2" stroke-linecap="round" stroke-linejoin="round">
    <path d="m3 9 9-7 9 7v11a2 2 0 0 1-2 2H5a2 2 0 0 1-2-2z"/>
    <polyline points="9 22 9 12 15 12 15 22"/>
  </symbol>
  
  <!-- Users Icon (admin) -->
  <symbol id="icon-users" viewBox="0 0 24 24" fill="none" stroke="currentColor" stroke-width="2" stroke-linecap="round" stroke-linejoin="round">
    <path d="M16 21v-2a4 4 0 0 0-4-4H6a4 4 0 0 0-4 4v2"/>
    <circle cx="9" cy="7" r="4"/>
    <path d="M22 21v-2a4 4 0 0 0-3-3.87"/>
    <path d="M16 3.13a4 4 0 0 1 0 7.75"/>
  </symbol>
  
  <!-- Shield Check Icon (roles) -->
  <symbol id="icon-shield-check" viewBox="0 0 24 24" fill="none" stroke="currentColor" stroke-width="2" stroke-linecap="round" stroke-linejoin="round">
    <path d="M12 22s8-4 8-10V5l-8-3-8 3v7c0 6 8 10 8 10z"/>
    <path d="m9 12 2 2 4-4"/>
  </symbol>
  
  <!-- Menu Icon (hamburger) -->
  <symbol id="icon-menu" viewBox="0 0 24 24" fill="none" stroke="currentColor" stroke-width="2" stroke-linecap="round" stroke-linejoin="round">
    <line x1="4" x2="20" y1="12" y2="12"/>
    <line x1="4" x2="20" y1="6" y2="6"/>
    <line x1="4" x2="20" y1="18" y2="18"/>
  </symbol>
  
  <!-- X Icon (close) -->
  <symbol id="icon-x" viewBox="0 0 24 24" fill="none" stroke="currentColor" stroke-width="2" stroke-linecap="round" stroke-linejoin="round">
    <path d="M18 6 6 18"/>
    <path d="m6 6 12 12"/>
  </symbol>
  
  <!-- Moon Icon (dark theme) -->
  <symbol id="icon-moon" viewBox="0 0 24 24" fill="none" stroke="currentColor" stroke-width="2" stroke-linecap="round" stroke-linejoin="round">
    <path d="M12 3a6 6 0 0 0 9 9 9 9 0 1 1-9-9Z"/>
  </symbol>
  
  <!-- Sun Icon (light theme) -->
  <symbol id="icon-sun" viewBox="0 0 24 24" fill="none" stroke="currentColor" stroke-width="2" stroke-linecap="round" stroke-linejoin="round">
    <circle cx="12" cy="12" r="4"/>
    <path d="M12 2v2"/>
    <path d="M12 20v2"/>
    <path d="m4.93 4.93 1.41 1.41"/>
    <path d="m17.66 17.66 1.41 1.41"/>
    <path d="M2 12h2"/>
    <path d="M20 12h2"/>
    <path d="m6.34 17.66-1.41 1.41"/>
    <path d="m19.07 4.93-1.41 1.41"/>
  </symbol>
  
  <!-- Mail Icon -->
  <symbol id="icon-mail" viewBox="0 0 24 24" fill="none" stroke="currentColor" stroke-width="2" stroke-linecap="round" stroke-linejoin="round">
    <rect width="20" height="16" x="2" y="4" rx="2"/>
    <path d="m22 7-8.97 5.7a1.94 1.94 0 0 1-2.06 0L2 7"/>
  </symbol>
  
  <!-- Lock Icon -->
  <symbol id="icon-lock" viewBox="0 0 24 24" fill="none" stroke="currentColor" stroke-width="2" stroke-linecap="round" stroke-linejoin="round">
    <rect width="18" height="11" x="3" y="11" rx="2" ry="2"/>
    <path d="M7 11V7a5 5 0 0 1 10 0v4"/>
  </symbol>
  
  <!-- Calendar Icon -->
  <symbol id="icon-calendar" viewBox="0 0 24 24" fill="none" stroke="currentColor" stroke-width="2" stroke-linecap="round" stroke-linejoin="round">
    <rect width="18" height="18" x="3" y="4" rx="2" ry="2"/>
    <line x1="16" x2="16" y1="2" y2="6"/>
    <line x1="8" x2="8" y1="2" y2="6"/>
    <line x1="3" x2="21" y1="10" y2="10"/>
  </symbol>
  
  <!-- Alert Circle Icon -->
  <symbol id="icon-alert-circle" viewBox="0 0 24 24" fill="none" stroke="currentColor" stroke-width="2" stroke-linecap="round" stroke-linejoin="round">
    <circle cx="12" cy="12" r="10"/>
    <line x1="12" x2="12" y1="8" y2="12"/>
    <line x1="12" x2="12.01" y1="16" y2="16"/>
  </symbol>
  
  <!-- Info Icon -->
  <symbol id="icon-info" viewBox="0 0 24 24" fill="none" stroke="currentColor" stroke-width="2" stroke-linecap="round" stroke-linejoin="round">
    <circle cx="12" cy="12" r="10"/>
    <path d="M12 16v-4"/>
    <path d="M12 8h.01"/>
  </symbol>
  
  <!-- Trash Icon -->
  <symbol id="icon-trash" viewBox="0 0 24 24" fill="none" stroke="currentColor" stroke-width="2" stroke-linecap="round" stroke-linejoin="round">
    <path d="M3 6h18"/>
    <path d="M19 6v14c0 1-1 2-2 2H7c-1 0-2-1-2-2V6"/>
    <path d="M8 6V4c0-1 1-2 2-2h4c1 0 2 1 2 2v2"/>
  </symbol>
  
  <!-- Edit Icon -->
  <symbol id="icon-edit" viewBox="0 0 24 24" fill="none" stroke="currentColor" stroke-width="2" stroke-linecap="round" stroke-linejoin="round">
    <path d="M11 4H4a2 2 0 0 0-2 2v14a2 2 0 0 0 2 2h14a2 2 0 0 0 2-2v-7"/>
    <path d="M18.5 2.5a2.121 2.121 0 0 1 3 3L12 15l-4 1 1-4 9.5-9.5z"/>
  </symbol>
  
  <!-- Plus Icon -->
  <symbol id="icon-plus" viewBox="0 0 24 24" fill="none" stroke="currentColor" stroke-width="2" stroke-linecap="round" stroke-linejoin="round">
    <path d="M5 12h14"/>
    <path d="M12 5v14"/>
  </symbol>
  
  <!-- ChevronDown Icon -->
  <symbol id="icon-chevron-down" viewBox="0 0 24 24" fill="none" stroke="currentColor" stroke-width="2" stroke-linecap="round" stroke-linejoin="round">
    <path d="m6 9 6 6 6-6"/>
  </symbol>
  
  <!-- Search Icon -->
  <symbol id="icon-search" viewBox="0 0 24 24" fill="none" stroke="currentColor" stroke-width="2" stroke-linecap="round" stroke-linejoin="round">
    <circle cx="11" cy="11" r="8"/>
    <path d="m21 21-4.3-4.3"/>
  </symbol>
  
  <!-- Copy Icon -->
  <symbol id="icon-copy" viewBox="0 0 24 24" fill="none" stroke="currentColor" stroke-width="2" stroke-linecap="round" stroke-linejoin="round">
    <rect width="14" height="14" x="8" y="8" rx="2" ry="2"/>
    <path d="M4 16c-1.1 0-2-.9-2-2V4c0-1.1.9-2 2-2h10c1.1 0 2 .9 2 2"/>
  </symbol>

  <!-- refresh-ccw icon -->
  <symbol id="icon-refresh-ccw" viewBox="0 0 24 24" fill="none" stroke="currentColor" stroke-width="2" stroke-linecap="round" stroke-linejoin="round">
    <path d="M21 12a9 9 0 0 0-9-9 9.75 9.75 0 0 0-6.74 2.74L3 8"/>
    <path d="M3 3v5h5"/>
    <path d="M3 12a9 9 0 0 0 9 9 9.75 9.75 0 0 0 6.74-2.74L21 16"/>
    <path d="M16 16h5v5"/>
  </symbol>

  <!-- refresh-cw icon-->
  <symbol id="icon-refresh-cw" viewBox="0 0 24 24" fill="none" stroke="currentColor" stroke-width="2" stroke-linecap="round" stroke-linejoin="round">
    <path d="M21 12a9 9 0 0 0-9-9 9.75 9.75 0 0 0-6.74 2.74L3 8"/>
    <path d="M3 3v5h5"/>
    <path d="M3 12a9 9 0 0 0 9 9 9.75 9.75 0 0 0 6.74-2.74L21 16"/>
    <path d="M16 16h5v5"/>
  </symbol>

  <!-- file-text icon-->
  <symbol id="icon-file-text" viewBox="0 0 24 24" fill="none" stroke="currentColor" stroke-width="2" stroke-linecap="round" stroke-linejoin="round">
    <path d="M14 2H6a2 2 0 0 0-2 2v16a2 2 0 0 0 2 2h12a2 2 0 0 0 2-2V8z"/>
    <polyline points="14 2 14 8 20 8"/>
    <line x1="16" x2="16" y1="13" y2="13"/>
    <line x1="8" x2="8" y1="13" y2="13"/>
    <line x1="12" x2="12" y1="17" y2="17"/>
    <line x1="12" x2="12" y1="19" y2="19"/>
    <line x1="16" x2="16" y1="17" y2="17"/>
    <line x1="16" x2="16" y1="19" y2="19"/>
    <line x1="8" x2="8" y1="17" y2="17"/>
    <line x1="8" x2="8" y1="19" y2="19"/>
  </symbol>

  <!-- error-bug icon-->
  <symbol id="icon-error-bug" viewBox="0 0 24 24" fill="none" stroke="currentColor" stroke-width="2" stroke-linecap="round" stroke-linejoin="round">
    <path d="M12 22s8-4 8-10V5l-8-3-8 3v7c0 6 8 10 8 10z"/>
    <path d="m9 12 2 2 4-4"/>
  </symbol>

</svg>